HIERARCHY
ROOT Hips
{
	OFFSET 0.000000 0.000000 0.000000
	CHANNELS 6 Xposition Yposition Zposition Xrotation Yrotation Zrotation
	JOINT LeftUpLeg_virtual
	{
		OFFSET 0.000000 0.000000 0.000000
		CHANNELS 3 Xrotation Yrotation Zrotation
		JOINT LeftUpLeg
		{
			OFFSET 11.394100 -6.187798 -0.413800
			CHANNELS 3 Xrotation Yrotation Zrotation
			JOINT LeftLeg
			{
				OFFSET 0.430247 -32.302673 3.732800
				CHANNELS 3 Xrotation Yrotation Zrotation
				JOINT LeftFoot
				{
					OFFSET -0.430247 -48.264931 -6.423300
					CHANNELS 3 Xrotation Yrotation Zrotation
					JOINT LeftToeBase
					{
						OFFSET 4.230900 -16.068199 23.438400
						CHANNELS 3 Xrotation Yrotation Zrotation
						JOINT LeftToe_End
						{
							OFFSET 4.510700 0.695400 19.974600
							CHANNELS 3 Xrotation Yrotation Zrotation
							End Site
							{
								OFFSET 0 0 0
							}
						}
					}
				}
			}
		}
	}
	JOINT RightUpLeg_virtual
	{
		OFFSET 0.000000 0.000000 0.000000
		CHANNELS 3 Xrotation Yrotation Zrotation
		JOINT RightUpLeg
		{
			OFFSET -11.333700 -6.187798 -0.413800
			CHANNELS 3 Xrotation Yrotation Zrotation
			JOINT RightLeg
			{
				OFFSET -0.430392 -32.302628 3.733000
				CHANNELS 3 Xrotation Yrotation Zrotation
				JOINT RightFoot
				{
					OFFSET 0.430392 -48.264973 -6.423500
					CHANNELS 3 Xrotation Yrotation Zrotation
					JOINT RightToeBase
					{
						OFFSET -4.230900 -16.068199 23.438400
						CHANNELS 3 Xrotation Yrotation Zrotation
						JOINT RightToe_End
						{
							OFFSET -4.510700 0.695400 19.974600
							CHANNELS 3 Xrotation Yrotation Zrotation
							End Site
							{
								OFFSET 0 0 0
							}
						}
					}
				}
			}
		}
	}
	JOINT Spine_virtual
	{
		OFFSET 0.000000 0.000000 0.000000
		CHANNELS 3 Xrotation Yrotation Zrotation
		JOINT Spine
		{
			OFFSET -0.002400 12.777504 0.315300
			CHANNELS 3 Xrotation Yrotation Zrotation
			JOINT Spine1
			{
				OFFSET -0.002067 5.816869 0.032633
				CHANNELS 3 Xrotation Yrotation Zrotation
				JOINT Spine1_split
				{
					OFFSET -0.002067 5.816869 0.032633
					CHANNELS 3 Xrotation Yrotation Zrotation
					JOINT Spine2
					{
						OFFSET -0.002067 5.816869 0.032633
						CHANNELS 3 Xrotation Yrotation Zrotation
						JOINT Neck_virtual
						{
							OFFSET 0.000000 0.000000 0.000000
							CHANNELS 3 Xrotation Yrotation Zrotation
							JOINT Neck
							{
								OFFSET -0.003700 21.199493 -0.826900
								CHANNELS 3 Xrotation Yrotation Zrotation
								JOINT Head
								{
									OFFSET 0.000000 20.442200 4.834800
									CHANNELS 3 Xrotation Yrotation Zrotation
									JOINT HeadTop_End
									{
										OFFSET 0.000000 34.668396 4.968400
										CHANNELS 3 Xrotation Yrotation Zrotation
										End Site
										{
											OFFSET 0 0 0
										}
									}
								}
							}
						}
						JOINT LeftShoulder_virtual
						{
							OFFSET 0.000000 0.000000 0.000000
							CHANNELS 3 Xrotation Yrotation Zrotation
							JOINT LeftShoulder
							{
								OFFSET 3.288150 8.794197 -1.372250
								CHANNELS 3 Xrotation Yrotation Zrotation
								JOINT LeftShoulder_split
								{
									OFFSET 3.288150 8.794197 -1.372250
									CHANNELS 3 Xrotation Yrotation Zrotation
									JOINT LeftArm
									{
										OFFSET 11.953299 -2.279007 -0.146200
										CHANNELS 3 Xrotation Yrotation Zrotation
										JOINT LeftForeArm
										{
											OFFSET 18.448900 0.000000 0.000000
											CHANNELS 3 Xrotation Yrotation Zrotation
											JOINT LeftHand
											{
												OFFSET 29.527798 0.000000 0.000000
												CHANNELS 3 Xrotation Yrotation Zrotation
												End Site
												{
													OFFSET 0 0 0
												}
											}
										}
									}
								}
							}
						}
						JOINT RightShoulder_virtual
						{
							OFFSET 0.000000 0.000000 0.000000
							CHANNELS 3 Xrotation Yrotation Zrotation
							JOINT RightShoulder
							{
								OFFSET -3.249400 8.794197 -1.372250
								CHANNELS 3 Xrotation Yrotation Zrotation
								JOINT RightShoulder_split
								{
									OFFSET -3.249400 8.794197 -1.372250
									CHANNELS 3 Xrotation Yrotation Zrotation
									JOINT RightArm
									{
										OFFSET -11.953299 -2.279007 -0.146200
										CHANNELS 3 Xrotation Yrotation Zrotation
										JOINT RightForeArm
										{
											OFFSET -18.448900 0.000000 0.000000
											CHANNELS 3 Xrotation Yrotation Zrotation
											JOINT RightHand
											{
												OFFSET -29.527802 0.000000 0.000000
												CHANNELS 3 Xrotation Yrotation Zrotation
												End Site
												{
													OFFSET 0 0 0
												}
											}
										}
									}
								}
							}
						}
					}
				}
			}
		}
	}
}
MOTION
Frames: 10
Frame Time: 0.03333333
4.847207 79.530434 -3.756390 0.000000 0.000000 0.000000 10.230957 8.264456 0.369027 -51.776635 7.658026 7.063901 69.538750 4.407957 2.819650 -23.442714 2.153161 -7.407502 -1.913381 -0.891084 -2.579648 0.000000 0.000000 0.000000 10.605797 9.174705 0.244425 -43.714590 -9.421992 -3.601799 73.258560 -4.246033 -2.228999 -36.980577 -16.727005 12.498250 8.707089 5.094494 -22.446867 0.000000 0.000000 0.000000 8.738137 12.330009 -0.251976 6.884567 -0.724779 1.543865 7.986938 -2.031766 0.964906 0.093032 -0.394615 0.045919 0.000000 0.000000 0.000000 8.096049 1.118404 1.587237 -25.218418 9.518091 17.598877 -20.900398 -41.693230 -14.916445 0.000000 0.000000 0.000000 7.279579 -1.395939 0.396170 3.821125 -21.818467 3.366391 3.105573 1.810042 -2.760477 -61.806423 -31.619821 -63.158240 -177.292682 -70.041910 -172.761985 0.000000 0.000000 0.000000 8.966181 -0.493771 1.785835 -4.528249 10.417297 9.628974 -3.013537 0.309666 7.046386 -48.409201 35.622824 56.266070 -141.963911 61.403756 133.144757 0.000000 0.000000 0.000000 
4.841192 79.522896 -3.759308 0.000000 0.000000 0.000000 10.219489 8.249881 0.381396 -51.766536 7.665936 7.065286 69.554624 4.411153 2.820722 -23.449718 2.169244 -7.409559 -1.915978 -0.891697 -2.587404 0.000000 0.000000 0.000000 10.600228 9.165274 0.254927 -43.720686 -9.420451 -3.602964 73.279331 -4.239577 -2.232337 -36.994022 -16.721288 12.485793 8.704875 5.092953 -22.459445 0.000000 0.000000 0.000000 8.732910 12.316086 -0.243987 6.879469 -0.737153 1.547130 7.994115 -2.042028 0.973047 0.091910 -0.394701 0.044446 0.000000 0.000000 0.000000 8.101856 1.109070 1.592265 -25.189225 9.551314 17.540889 -20.909806 -41.647580 -14.904333 0.000000 0.000000 0.000000 7.286658 -1.405786 0.401101 3.826050 -21.841661 3.351881 3.080001 1.822363 -2.729591 -61.777866 -31.578382 -63.129294 -177.414970 -70.086880 -172.883453 0.000000 0.000000 0.000000 8.976146 -0.501460 1.793086 -4.526595 10.431818 9.618059 -3.049790 0.270160 7.006252 -48.407538 35.600189 56.243640 -141.876826 61.443699 133.079133 0.000000 0.000000 0.000000 
4.835304 79.516335 -3.765343 0.000000 0.000000 0.000000 10.205896 8.238829 0.390701 -51.749666 7.669853 7.060107 69.567908 4.415492 2.825955 -23.461507 2.191310 -7.413148 -1.922041 -0.891260 -2.598755 0.000000 0.000000 0.000000 10.591499 9.151094 0.264783 -43.726584 -9.420152 -3.603548 73.302799 -4.233530 -2.235610 -37.006925 -16.711400 12.471465 8.710597 5.090202 -22.473359 0.000000 0.000000 0.000000 8.727096 12.302013 -0.236773 6.871908 -0.746655 1.548148 8.000989 -2.048231 0.981856 0.089310 -0.393658 0.044176 0.000000 0.000000 0.000000 8.101192 1.102901 1.598898 -25.155255 9.579635 17.488896 -20.882863 -41.606821 -14.891993 0.000000 0.000000 0.000000 7.292518 -1.412859 0.407694 3.827705 -21.865187 3.327062 3.041432 1.824698 -2.700084 -61.759595 -31.540943 -63.100757 -177.518351 -70.148133 -172.987942 0.000000 0.000000 0.000000 8.982294 -0.505526 1.802319 -4.525282 10.452582 9.604746 -3.077722 0.229073 6.978899 -48.456483 35.566742 56.252092 -141.747230 61.483949 132.967336 0.000000 0.000000 0.000000 
4.830432 79.511147 -3.772381 0.000000 0.000000 0.000000 10.191725 8.230492 0.398767 -51.725019 7.669421 7.046597 69.573529 4.420190 2.834864 -23.478393 2.218213 -7.420451 -1.925784 -0.889926 -2.612668 0.000000 0.000000 0.000000 10.579342 9.131294 0.275434 -43.729135 -9.420567 -3.604496 73.325871 -4.227869 -2.239890 -37.018679 -16.698137 12.458456 8.720732 5.086836 -22.488302 0.000000 0.000000 0.000000 8.719811 12.285091 -0.227553 6.864030 -0.752728 1.548354 8.008177 -2.051127 0.989911 0.087819 -0.393815 0.045049 0.000000 0.000000 0.000000 8.098349 1.099438 1.605616 -25.117884 9.598951 17.447693 -20.826258 -41.585859 -14.883923 0.000000 0.000000 0.000000 7.298105 -1.417449 0.415537 3.826179 -21.882415 3.304825 3.018471 1.808679 -2.679001 -61.774246 -31.507919 -63.081155 -177.593402 -70.155858 -173.068251 0.000000 0.000000 0.000000 8.985426 -0.507094 1.811952 -4.525185 10.475786 9.583917 -3.082143 0.222178 6.980378 -48.530079 35.534756 56.295372 -141.646143 61.498818 132.880142 0.000000 0.000000 0.000000 
4.826469 79.507004 -3.777977 0.000000 0.000000 0.000000 10.177515 8.222698 0.407220 -51.693457 7.668114 7.026698 69.570654 4.426206 2.844747 -23.498055 2.247298 -7.429993 -1.929883 -0.887921 -2.625518 0.000000 0.000000 0.000000 10.564171 9.109916 0.287565 -43.727698 -9.420079 -3.606189 73.346089 -4.222144 -2.246230 -37.029423 -16.682532 12.451096 8.729202 5.083860 -22.504380 0.000000 0.000000 0.000000 8.709854 12.263171 -0.214827 6.856557 -0.755685 1.548788 8.015796 -2.052081 0.994633 0.086940 -0.393075 0.045956 0.000000 0.000000 0.000000 8.096045 1.098167 1.610793 -25.081139 9.605069 17.420015 -20.750057 -41.591354 -14.880877 0.000000 0.000000 0.000000 7.303619 -1.419482 0.422600 3.823273 -21.890866 3.294013 3.013136 1.789171 -2.664363 -61.824229 -31.476227 -63.068628 -177.631869 -70.088034 -173.117797 0.000000 0.000000 0.000000 8.986949 -0.507998 1.818596 -4.525832 10.501046 9.555145 -3.070606 0.230163 7.010887 -48.600693 35.520880 56.363086 -141.594275 61.488621 132.838204 0.000000 0.000000 0.000000 
4.822981 79.503342 -3.782207 0.000000 0.000000 0.000000 10.164526 8.213893 0.416482 -51.658862 7.667803 7.004430 69.564555 4.432876 2.853604 -23.514709 2.275820 -7.441557 -1.937833 -0.885376 -2.635600 0.000000 0.000000 0.000000 10.547672 9.092515 0.300113 -43.722052 -9.417452 -3.608041 73.363485 -4.216289 -2.254524 -37.038866 -16.666519 12.451490 8.730910 5.081786 -22.520985 0.000000 0.000000 0.000000 8.697779 12.238572 -0.198980 6.850342 -0.756074 1.551257 8.023687 -2.052044 0.994453 0.086831 -0.391529 0.046577 0.000000 0.000000 0.000000 8.095591 1.098314 1.612103 -25.049039 9.598486 17.408417 -20.673193 -41.624996 -14.885398 0.000000 0.000000 0.000000 7.309756 -1.420002 0.426063 3.820816 -21.893832 3.299424 3.028603 1.779629 -2.657344 -61.896820 -31.437097 -63.054196 -177.620463 -69.976080 -173.123562 0.000000 0.000000 0.000000 8.988489 -0.508044 1.820063 -4.528198 10.527569 9.521469 -3.035904 0.254710 7.053383 -48.656874 35.525579 56.435319 -141.569440 61.473724 132.817359 0.000000 0.000000 0.000000 
4.818750 79.499550 -3.784222 0.000000 0.000000 0.000000 10.152810 8.206683 0.426010 -51.629451 7.669737 6.984864 69.562553 4.439661 2.859503 -23.523556 2.300836 -7.453117 -1.948954 -0.882130 -2.643997 0.000000 0.000000 0.000000 10.532415 9.084292 0.311228 -43.713245 -9.413300 -3.609291 73.380499 -4.211048 -2.263218 -37.049473 -16.651820 12.456299 8.727581 5.079978 -22.535869 0.000000 0.000000 0.000000 8.683577 12.215974 -0.182856 6.845657 -0.755506 1.556782 8.030677 -2.052269 0.988651 0.087222 -0.390587 0.046567 0.000000 0.000000 0.000000 8.096960 1.098176 1.608589 -25.026049 9.580894 17.410313 -20.616269 -41.681475 -14.898106 0.000000 0.000000 0.000000 7.316786 -1.420355 0.423597 3.820494 -21.892841 3.321439 3.061022 1.784159 -2.662002 -61.980586 -31.395552 -63.035365 -177.562707 -69.874604 -173.084862 0.000000 0.000000 0.000000 8.992009 -0.508078 1.814563 -4.531608 10.554705 9.487349 -2.994024 0.276514 7.083973 -48.704276 35.544878 56.494243 -141.542775 61.470589 132.785844 0.000000 0.000000 0.000000 
4.813390 79.494652 -3.787067 0.000000 0.000000 0.000000 10.142149 8.203068 0.434063 -51.611023 7.674213 6.972054 69.567225 4.445468 2.862426 -23.525151 2.318559 -7.460834 -1.960417 -0.878481 -2.651090 0.000000 0.000000 0.000000 10.520277 9.087806 0.318955 -43.704485 -9.409057 -3.609115 73.398893 -4.207700 -2.270226 -37.064346 -16.639854 12.460212 8.723518 5.077209 -22.546333 0.000000 0.000000 0.000000 8.668069 12.200193 -0.169238 6.842847 -0.754561 1.564402 8.036299 -2.052828 0.978540 0.087253 -0.389570 0.046106 0.000000 0.000000 0.000000 8.099838 1.097368 1.601311 -25.016068 9.555878 17.422913 -20.594439 -41.748736 -14.920608 0.000000 0.000000 0.000000 7.323459 -1.420745 0.415252 3.822618 -21.891815 3.350377 3.090729 1.802582 -2.674986 -62.055206 -31.354953 -63.005633 -177.463942 -69.839722 -173.004512 0.000000 0.000000 0.000000 8.997194 -0.508655 1.803106 -4.534274 10.581177 9.461534 -2.955761 0.287357 7.100729 -48.760277 35.576621 56.535050 -141.482355 61.490089 132.711054 0.000000 0.000000 0.000000 
4.807029 79.488113 -3.791920 0.000000 0.000000 0.000000 10.133016 8.205835 0.439725 -51.609292 7.677984 6.967878 69.577949 4.446314 2.864425 -23.520176 2.325306 -7.466751 -1.966733 -0.874431 -2.658269 0.000000 0.000000 0.000000 10.511799 9.101242 0.322708 -43.697450 -9.407039 -3.607963 73.420565 -4.207546 -2.273411 -37.083873 -16.631422 12.457620 8.723074 5.072583 -22.549890 0.000000 0.000000 0.000000 8.652911 12.196174 -0.160259 6.842919 -0.754136 1.572399 8.040330 -2.053333 0.967297 0.088595 -0.389158 0.045730 0.000000 0.000000 0.000000 8.104479 1.096051 1.591753 -25.021181 9.528816 17.440434 -20.615024 -41.815630 -14.953536 0.000000 0.000000 0.000000 7.328595 -1.421608 0.404059 3.825036 -21.891613 3.378242 3.109821 1.818248 -2.692522 -62.110011 -31.325720 -62.965711 -177.340411 -69.886011 -172.894450 0.000000 0.000000 0.000000 9.003414 -0.509504 1.789580 -4.535256 10.604120 9.453778 -2.928860 0.303003 7.103532 -48.828134 35.613464 56.561408 -141.371706 61.534882 132.578302 0.000000 0.000000 0.000000 
4.799834 79.480408 -3.798172 0.000000 0.000000 0.000000 10.125394 8.217297 0.442294 -51.625913 7.678914 6.971540 69.590154 4.440816 2.866688 -23.510816 2.319086 -7.470053 -1.964390 -0.870426 -2.665931 0.000000 0.000000 0.000000 10.507402 9.122411 0.322968 -43.694793 -9.408878 -3.607187 73.444696 -4.211148 -2.271832 -37.104702 -16.626839 12.447408 8.727623 5.065903 -22.547110 0.000000 0.000000 0.000000 8.640632 12.206433 -0.156844 6.846778 -0.755583 1.577838 8.043590 -2.053624 0.958109 0.090000 -0.389970 0.046173 0.000000 0.000000 0.000000 8.110681 1.094467 1.583547 -25.040836 9.503401 17.455971 -20.671885 -41.874701 -14.996063 0.000000 0.000000 0.000000 7.331959 -1.422481 0.394081 3.827201 -21.890843 3.400048 3.111855 1.829450 -2.709230 -62.147181 -31.312572 -62.920447 -177.220104 -70.002336 -172.779798 0.000000 0.000000 0.000000 9.010391 -0.510590 1.778149 -4.534758 10.624993 9.470160 -2.928062 0.307926 7.105907 -48.896286 35.648543 56.579781 -141.206580 61.599898 132.387508 0.000000 0.000000 0.000000 
